PathFileType	4	(X/Y/Z)	7_coords_data.trc
DataRate	CameraRate	NumFrames	NumMarkers	Units	OrigDataRate	OrigDataStartFrame	OrigNumFrames
30.0	30.0	5	21	m	30.0	39	68
Frame#	Time	THUMB_TIP	THUMB_IP	THUMB_MCP	THUMB_CMC	INDEX_TIP	INDEX_DIP	INDEX_PIP	INDEX_MCP	MIDDLE_TIP	MIDDLE_DIP	MIDDLE_PIP	MIDDLE_MCP	RING_TIP	RING_DIP	RING_PIP	RING_MCP	PINKY_TIP	PINKY_DIP	PINKY_PIP	PINKY_MCP	WRIST
X1	Y1	Z1	X2	Y2	Z2	X3	Y3	Z3	X4	Y4	Z4	X5	Y5	Z5	X6	Y6	Z6	X7	Y7	Z7	X8	Y8	Z8	X9	Y9	Z9	X10	Y10	Z10	X11	Y11	Z11	X12	Y12	Z12	X13	Y13	Z13	X14	Y14	Z14	X15	Y15	Z15	X16	Y16	Z16	X17	Y17	Z17	X18	Y18	Z18	X19	Y19	Z19	X20	Y20	Z20	X21	Y21	Z21
37	1.2666666666666608	0.5514959207912137	0.0005785612679293228	-0.12055742246693782	0.5285439633509293	-0.0003712563213082998	-0.12111013957953179	0.49901458235650775	-0.0011315351712567479	-0.11129904207942445	0.474713584603602	-0.014267348854650197	-0.07627331000872473	0.5601257043659195	0.04955255180838791	-0.15510361280984067	0.5462902344655429	0.046252200394859444	-0.1438925712354374	0.5275835146996618	0.0413191238101408	-0.12783849935288713	0.49986972426809423	0.039009314135954876	-0.09558564377102904	0.5144331590483235	-0.0015300114877035975	-0.1035086255039239	0.5293934402092031	0.005214916910770473	-0.1111699523137453	0.5445503878023803	0.029557363994001107	-0.10596209674184262	0.5137169137855631	0.03618116442630204	-0.07431450490790842	0.5241856853507587	-0.009411671976746527	-0.09698752254451287	0.5399882815023065	-0.0009679975431720056	-0.0989830968806103	0.5534162339615813	0.01657222769033717	-0.087484811334094	0.5257148025809131	0.02530386263367357	-0.059358132101051925	0.5970260822519556	0.036115972679919395	-0.04482747883813859	0.5815245802801806	0.02903832235114212	-0.04644312188120661	0.5624378232821227	0.020948008705291676	-0.049767960435009334	0.529862420710762	0.006598477729677477	-0.05558324710839688	0.4622830810018609	-0.023011742144276925	-0.051989820119430985
38	1.299999999999994	0.5525443735839798	0.0030024396185729385	-0.11809058575492226	0.5296551974680136	0.001410078626729483	-0.11933557700145281	0.4998864398552582	-3.828827886664943e-05	-0.11036098489374158	0.4752570922909686	-0.013991553659840061	-0.07588502770955963	0.5621198582982205	0.050285503443322166	-0.15160736244833117	0.5478604686840942	0.047307656284622523	-0.1408462178004804	0.5285549135682374	0.04268026037239492	-0.12542245101865585	0.49964206813874734	0.040052232805826815	-0.09426515758229043	0.5155647941722077	-0.0004138102881431349	-0.10214147495206083	0.5306419042682926	0.006709030283510664	-0.10920871580980268	0.5448976179174148	0.03144928608565978	-0.10336885954457942	0.5129914607730302	0.03739421104745788	-0.07266376347769771	0.5254189694193364	-0.00823501395999715	-0.09527754006469807	0.540918036700418	0.0008727772143394263	-0.09662922543533042	0.5534601906125642	0.018773201853328647	-0.08469401902790266	0.5247947338119879	0.026749351515818365	-0.0573189673023648	0.5960105720212292	0.03828778763917595	-0.04181790436624935	0.5805659131472314	0.03110562527832239	-0.04351468251561971	0.5615905633326639	0.022832593832974313	-0.04702254071102563	0.5292713735630861	0.008093820909221616	-0.05327729860722541	0.4622830810018609	-0.023011742144276925	-0.051989820119430985
39	1.3333333333333275	0.553707329286889	0.005950064086960638	-0.11471906359974868	0.5309488981592005	0.003660070789495151	-0.11691217629722297	0.5008959174915198	0.0014230004716647704	-0.10912540100952581	0.47590291839307053	-0.013620135435460923	-0.07537715574929549	0.5642257420245178	0.0509552048391384	-0.14727201774763019	0.5494945794709613	0.04855128325806546	-0.1370146296369684	0.52949948042086	0.044501327182858375	-0.12232437086574402	0.49919265876057095	0.04141896979487325	-0.09256480554996413	0.5168066728031522	0.001114511258408446	-0.10042701057331477	0.5319977386118953	0.00871328652574177	-0.10671112817493567	0.545125947914396	0.03387762075926415	-0.10009176618956897	0.5119562595658926	0.03891068423105859	-0.07058603847524111	0.5266702469359313	-0.006685317924185807	-0.09303028350862758	0.5417713287476635	0.0031448709668373542	-0.0936001207504582	0.5532886477776202	0.02141410439747571	-0.08119986062338655	0.5235020442383087	0.02853049303339239	-0.054802207387265794	0.5946663545959608	0.04085093939943574	-0.0383743228164857	0.5792818853507637	0.03355119263440387	-0.040115530216536244	0.5604322992802571	0.025060954496145205	-0.04377899583343797	0.5283978794995996	0.00989997175316315	-0.05047406884152522	0.4622830810018609	-0.023011742144276925	-0.051989820119430985
40	1.3666666666666607	0.5549523548602306	0.009464813835640018	-0.11038285945648502	0.532429481913199	0.006414267586033806	-0.1137613741879745	0.502108634497931	0.003183843381634688	-0.10751392899176332	0.4766534247130021	-0.013160266339539706	-0.07472990281700137	0.5662819430904373	0.05155686856735586	-0.14202400338784232	0.5510568888549521	0.04999172961542642	-0.13234164501874218	0.5302993343408535	0.046845018302794306	-0.11851298016962603	0.4984772045347296	0.04309362000300776	-0.09046097205258455	0.518109475545369	0.003026156837757865	-0.09846724551133718	0.5333534022964767	0.01133416181640201	-0.10362474010480871	0.5451145402361216	0.03690282855329252	-0.09605318374812274	0.5104914066568685	0.04074381916008818	-0.06807759915527264	0.5280393312492595	-0.004688011575790685	-0.09031199328521161	0.5425750702061058	0.0059659703588029744	-0.08985926608724604	0.5527884048952472	0.02462523513543069	-0.07690937761192379	0.521687642598968	0.030684933788721058	-0.05179477088950696	0.5927661177279426	0.04399306703704409	-0.03432844978483579	0.5774680948350024	0.03652219803799284	-0.036105135453740805	0.5587682119255193	0.027774104697963375	-0.03992577166852934	0.5270958510329392	0.012092047780221216	-0.047124250488312425	0.4622830810018609	-0.023011742144276925	-0.051989820119430985
41	1.3999999999999937	0.5560120560850135	0.013708275952328042	-0.10550507749666094	0.5338598626809998	0.009686585531601066	-0.11009924048364847	0.5033956108901356	0.005181640670956167	-0.10557653834605632	0.47742075997338984	-0.012603451982966307	-0.0739713552403658	0.5679776864835707	0.05215078141170304	-0.13594259001876055	0.5522999123664984	0.05169721343969769	-0.1268871124041436	0.5307419720314166	0.04976406885131024	-0.11409930596560838	0.49732820056201066	0.04500137780156044	-0.08812869287783265	0.5196150231950555	0.005239311631677013	-0.09630483500304085	0.5347033686749543	0.014538881133885462	-0.10002771530635571	0.5446246306258711	0.040550015183894894	-0.09140222884275609	0.5084383702301993	0.04286815228495999	-0.0652999546131548	0.529780688962309	-0.002152180452060337	-0.0872780725675851	0.5434524212850171	0.009464875888968605	-0.08550953156846205	0.5518549692224	0.02861087093874437	-0.07198148511991861	0.5192256660632871	0.03318405679820424	-0.04854784732196771	0.5900781894143605	0.04781571667994411	-0.02968377188507268	0.5748871641922844	0.0401424767027746	-0.03151520328018714	0.55638080984498	0.031068642647573697	-0.03551425358128127	0.5252394698710813	0.01465579773964476	-0.04337039243305438	0.4622830810018609	-0.023011742144276925	-0.051989820119430985
